<?xml version="1.0" standalone="no"?>
<!DOCTYPE svg PUBLIC "-//W3C//DTD SVG 20010904//EN"
 "http://www.w3.org/TR/2001/REC-SVG-20010904/DTD/svg10.dtd">
<svg version="1.0" xmlns="http://www.w3.org/2000/svg"
 width="604.000000pt" height="518.000000pt" viewBox="0 0 604.000000 518.000000"
 preserveAspectRatio="xMidYMid meet">

<g transform="translate(0.000000,518.000000) scale(0.100000,-0.100000)"
fill="#000000" stroke="none">
<path d="M0 2590 l0 -2590 3020 0 3020 0 0 2590 0 2590 -3020 0 -3020 0 0
-2590z m2744 2083 c4 -27 62 -408 129 -848 l123 -800 -7 -535 c-7 -576 -7
-579 -64 -730 -46 -122 -111 -218 -219 -325 -106 -105 -189 -160 -326 -216
-152 -61 -182 -64 -760 -64 -589 0 -615 2 -780 72 -271 115 -468 334 -557 620
l-28 88 -3 698 -3 697 287 -2 287 -3 12 -50 c16 -70 38 -107 86 -148 76 -66
86 -67 537 -67 380 0 404 1 400 18 -3 9 -105 298 -228 642 -122 344 -223 631
-224 639 -1 10 171 59 654 187 360 94 660 172 666 173 7 1 15 -20 18 -46z
m1413 -185 c238 -62 433 -118 433 -123 0 -8 -423 -1203 -455 -1287 -7 -17 16
-18 392 -18 452 0 469 2 545 70 50 44 75 88 86 153 l8 42 289 0 290 0 0 -665
c0 -593 -2 -674 -17 -745 -79 -366 -367 -657 -732 -741 -58 -14 -155 -17 -541
-21 -482 -5 -626 1 -748 33 -81 20 -229 91 -290 137 -26 21 -51 37 -55 37 -5
0 -45 38 -90 84 -76 77 -96 106 -73 106 5 0 44 23 87 51 241 158 394 401 434
692 8 56 6 321 -9 1004 -11 510 -23 1015 -27 1122 l-6 194 23 -6 c13 -4 219
-57 456 -119z"/>
</g>
</svg>
